<svg version="1.1" viewBox="0.0 0.0 448.750656167979 230.6246719160105" fill="none" stroke="none" stroke-linecap="square" stroke-miterlimit="10" xmlns:xlink="http://www.w3.org/1999/xlink" xmlns="http://www.w3.org/2000/svg"><clipPath id="p.0"><path d="m0 0l448.75067 0l0 230.62466l-448.75067 0l0 -230.62466z" clip-rule="nonzero"/></clipPath><g clip-path="url(#p.0)"><path fill="#000000" fill-opacity="0.0" d="m0 0l448.75067 0l0 230.62466l-448.75067 0z" fill-rule="evenodd"/><path fill="#000000" fill-opacity="0.0" d="m263.59836 90.103676l0 -17.939522l-39.748047 0l0 -17.934494" fill-rule="evenodd"/><path stroke="#595959" stroke-width="4.0" stroke-linejoin="round" stroke-linecap="butt" d="m263.59836 90.103676l0 -17.939522l-39.748047 0l0 -17.934494" fill-rule="evenodd"/><path fill="#bf9000" d="m2.6325073 29.578762l0 0c0 -13.611428 11.034242 -24.64567 24.64567 -24.64567l121.92126 0c6.536438 0 12.8051605 2.59659 17.427124 7.2185497c4.6219635 4.6219597 7.2185516 10.890682 7.2185516 17.42712l0 0l0 0c0 13.611427 -11.034241 24.645668 -24.645676 24.645668l-121.92126 0c-13.611428 0 -24.64567 -11.034241 -24.64567 -24.645668z" fill-rule="evenodd"/><path fill="#ffffff" d="m39.963314 36.49876l0 -13.3125l2.828125 0l0 13.3125l-2.828125 0zm15.363739 0l-2.78125 0l0 -5.953125q0 -1.09375 -0.390625 -1.640625q-0.390625 -0.5625 -1.25 -0.5625q-1.15625 0 -1.6875 0.78125q-0.515625 0.78125 -0.515625 2.578125l0 4.796875l-2.78125 0l0 -10.1875l2.125 0l0.375 1.3125l0.15625 0q0.46875 -0.75 1.28125 -1.125q0.8125 -0.375 1.84375 -0.375q1.78125 0 2.703125 0.96875q0.921875 0.953125 0.921875 2.765625l0 6.640625zm8.448883 0.1875q-1.796875 0 -2.8125 -1.3125l-0.140625 0q0.140625 1.28125 0.140625 1.484375l0 4.125l-2.78125 0l0 -14.671875l2.265625 0l0.390625 1.328125l0.125 0q0.96875 -1.515625 2.890625 -1.515625q1.7968712 0 2.8124962 1.390625q1.03125 1.390625 1.03125 3.875q0 1.625 -0.484375 2.828125q-0.46875 1.203125 -1.359375 1.84375q-0.875 0.625 -2.0781212 0.625zm-0.8125 -8.34375q-1.03125 0 -1.515625 0.640625q-0.46875 0.625 -0.484375 2.09375l0 0.296875q0 1.640625 0.484375 2.359375q0.484375 0.703125 1.546875 0.703125q1.8749962 0 1.8749962 -3.078125q0 -1.515625 -0.46875 -2.265625q-0.4531212 -0.75 -1.4374962 -0.75zm14.243404 8.15625l-0.375 -1.296875l-0.140625 0q-0.453125 0.703125 -1.28125 1.09375q-0.8125 0.390625 -1.859375 0.390625q-1.796875 0 -2.703125 -0.953125q-0.90625 -0.96875 -0.90625 -2.78125l0 -6.640625l2.78125 0l0 5.953125q0 1.09375 0.390625 1.65625q0.390625 0.546875 1.25 0.546875q1.15625 0 1.671875 -0.78125q0.53125 -0.78125 0.53125 -2.578125l0 -4.796875l2.765625 0l0 10.1875l-2.125 0zm9.339508 -2.03125q0.734375 0 1.75 -0.3125l0 2.0625q-1.046875 0.46875 -2.546875 0.46875q-1.671875 0 -2.4375 -0.84375q-0.75 -0.84375 -0.75 -2.53125l0 -4.90625l-1.34375 0l0 -1.1875l1.53125 -0.921875l0.8125 -2.15625l1.765625 0l0 2.171875l2.859375 0l0 2.09375l-2.859375 0l0 4.90625q0 0.59375 0.328125 0.875q0.34375 0.28125 0.890625 0.28125zm19.913345 -4.75q0 3.28125 -1.875 5.03125q-1.859375 1.75 -5.390625 1.75l-3.78125 0l0 -13.3125l4.1875 0q3.265625 0 5.0625 1.71875q1.796875 1.71875 1.796875 4.8125zm-2.921875 0.0625q0 -4.28125 -3.796875 -4.28125l-1.5 0l0 8.671875l1.21875 0q4.078125 0 4.078125 -4.390625zm11.934998 6.71875l-0.53125 -1.390625l-0.078125 0q-0.703125 0.890625 -1.453125 1.234375q-0.734375 0.34375 -1.921875 0.34375q-1.46875 0 -2.3125 -0.84375q-0.84375 -0.84375 -0.84375 -2.390625q0 -1.625 1.125 -2.390625q1.140625 -0.765625 3.4375 -0.84375l1.765625 -0.0625l0 -0.4375q0 -1.546875 -1.59375 -1.546875q-1.21875 0 -2.859375 0.734375l-0.921875 -1.875q1.75 -0.921875 3.890625 -0.921875q2.046875 0 3.140625 0.890625q1.09375 0.890625 1.09375 2.71875l0 6.78125l-1.9375 0zm-0.8125 -4.71875l-1.078125 0.03125q-1.21875 0.046875 -1.8125 0.453125q-0.578125 0.390625 -0.578125 1.203125q0 1.1875 1.34375 1.1875q0.96875 0 1.546875 -0.546875q0.578125 -0.5625 0.578125 -1.484375l0 -0.84375zm9.909073 2.6875q0.734375 0 1.75 -0.3125l0 2.0625q-1.046875 0.46875 -2.546875 0.46875q-1.671875 0 -2.4375 -0.84375q-0.75 -0.84375 -0.75 -2.53125l0 -4.90625l-1.34375 0l0 -1.1875l1.53125 -0.921875l0.8125 -2.15625l1.765625 0l0 2.171875l2.859375 0l0 2.09375l-2.859375 0l0 4.90625q0 0.59375 0.328125 0.875q0.34375 0.28125 0.890625 0.28125zm10.270226 2.03125l-0.53125 -1.390625l-0.078125 0q-0.703125 0.890625 -1.453125 1.234375q-0.734375 0.34375 -1.921875 0.34375q-1.46875 0 -2.3125 -0.84375q-0.8437576 -0.84375 -0.8437576 -2.390625q0 -1.625 1.1250076 -2.390625q1.140625 -0.765625 3.4375 -0.84375l1.765625 -0.0625l0 -0.4375q0 -1.546875 -1.59375 -1.546875q-1.21875 0 -2.859375 0.734375l-0.921875 -1.875q1.75 -0.921875 3.890625 -0.921875q2.046875 0 3.140625 0.890625q1.09375 0.890625 1.09375 2.71875l0 6.78125l-1.9375 0zm-0.8125 -4.71875l-1.078125 0.03125q-1.21875 0.046875 -1.8125 0.453125q-0.578125 0.390625 -0.578125 1.203125q0 1.1875 1.34375 1.1875q0.96875 0 1.546875 -0.546875q0.578125 -0.5625 0.578125 -1.484375l0 -0.84375z" fill-rule="nonzero"/><path fill="#bf9000" d="m275.11807 29.580809l0 0c0 -13.611427 11.034241 -24.64567 24.64566 -24.64567l121.921265 0c6.536438 0 12.805176 2.5965896 17.427124 7.2185493c4.6219482 4.6219597 7.2185364 10.890682 7.2185364 17.42712l0 0l0 0c0 13.611425 -11.034241 24.64567 -24.64566 24.64567l-121.921265 0c-13.61142 0 -24.64566 -11.034245 -24.64566 -24.64567z" fill-rule="evenodd"/><path fill="#ffffff" d="m316.15735 29.828932q0 3.296877 -1.640625 5.078127q-1.640625 1.78125 -4.703125 1.78125q-3.0625 0 -4.703125 -1.78125q-1.640625 -1.78125 -1.640625 -5.109377q0 -3.3125 1.640625 -5.0625q1.65625 -1.765625 4.71875 -1.765625q3.078125 0 4.703125 1.765625q1.625 1.765625 1.625 5.09375zm-9.71875 0q0 2.218752 0.84375 3.359377q0.84375 1.125 2.53125 1.125q3.375 0 3.375 -4.484377q0 -4.5 -3.359375 -4.5q-1.6875 0 -2.546875 1.140625q-0.84375 1.125 -0.84375 3.359375zm19.47348 6.671877l-0.375 -1.296875l-0.140625 0q-0.453125 0.703125 -1.28125 1.09375q-0.8125 0.390625 -1.859375 0.390625q-1.796875 0 -2.703125 -0.953125q-0.90625 -0.96875 -0.90625 -2.78125l0 -6.640627l2.78125 0l0 5.953127q0 1.09375 0.390625 1.65625q0.390625 0.546875 1.25 0.546875q1.15625 0 1.671875 -0.78125q0.53125 -0.78125 0.53125 -2.578127l0 -4.796875l2.765625 0l0 10.187502l-2.125 0zm9.339508 -2.03125q0.734375 0 1.75 -0.3125l0 2.0625q-1.046875 0.46875 -2.546875 0.46875q-1.671875 0 -2.4375 -0.84375q-0.75 -0.84375 -0.75 -2.53125l0 -4.906252l-1.34375 0l0 -1.1875l1.53125 -0.921875l0.8125 -2.15625l1.765625 0l0 2.171875l2.859375 0l0 2.09375l-2.859375 0l0 4.906252q0 0.59375 0.328125 0.875q0.34375 0.28125 0.890625 0.28125zm9.395203 2.21875q-1.796875 0 -2.8125 -1.3125l-0.140625 0q0.140625 1.28125 0.140625 1.484375l0 4.125l-2.78125 0l0 -14.671877l2.265625 0l0.390625 1.328125l0.125 0q0.96875 -1.515625 2.890625 -1.515625q1.796875 0 2.8125 1.390625q1.03125 1.390625 1.03125 3.875q0 1.6250019 -0.484375 2.828127q-0.46875 1.203125 -1.359375 1.84375q-0.875 0.625 -2.078125 0.625zm-0.8125 -8.343752q-1.03125 0 -1.515625 0.640625q-0.46875 0.625 -0.484375 2.09375l0 0.296875q0 1.6406269 0.484375 2.359377q0.484375 0.703125 1.546875 0.703125q1.875 0 1.875 -3.078127q0 -1.515625 -0.46875 -2.265625q-0.453125 -0.75 -1.4375 -0.75zm14.243408 8.156252l-0.375 -1.296875l-0.140625 0q-0.453125 0.703125 -1.28125 1.09375q-0.8125 0.390625 -1.859375 0.390625q-1.796875 0 -2.703125 -0.953125q-0.90625 -0.96875 -0.90625 -2.78125l0 -6.640627l2.78125 0l0 5.953127q0 1.09375 0.390625 1.65625q0.390625 0.546875 1.25 0.546875q1.15625 0 1.671875 -0.78125q0.53125 -0.78125 0.53125 -2.578127l0 -4.796875l2.765625 0l0 10.187502l-2.125 0zm9.339508 -2.03125q0.734375 0 1.75 -0.3125l0 2.0625q-1.046875 0.46875 -2.546875 0.46875q-1.671875 0 -2.4375 -0.84375q-0.75 -0.84375 -0.75 -2.53125l0 -4.906252l-1.34375 0l0 -1.1875l1.53125 -0.921875l0.8125 -2.15625l1.765625 0l0 2.171875l2.859375 0l0 2.09375l-2.859375 0l0 4.906252q0 0.59375 0.328125 0.875q0.34375 0.28125 0.890625 0.28125zm19.91336 -4.750002q0 3.281252 -1.875 5.031252q-1.859375 1.75 -5.390625 1.75l-3.78125 0l0 -13.312502l4.1875 0q3.265625 0 5.0625 1.71875q1.796875 1.71875 1.796875 4.8125zm-2.921875 0.0625q0 -4.28125 -3.796875 -4.28125l-1.5 0l0 8.671877l1.21875 0q4.078125 0 4.078125 -4.390627zm11.934998 6.718752l-0.53125 -1.390625l-0.078125 0q-0.703125 0.890625 -1.453125 1.234375q-0.734375 0.34375 -1.921875 0.34375q-1.46875 0 -2.3125 -0.84375q-0.84375 -0.84375 -0.84375 -2.390625q0 -1.6250019 1.125 -2.390627q1.140625 -0.765625 3.4375 -0.84375l1.765625 -0.0625l0 -0.4375q0 -1.546875 -1.59375 -1.546875q-1.21875 0 -2.859375 0.734375l-0.921875 -1.875q1.75 -0.921875 3.890625 -0.921875q2.046875 0 3.140625 0.890625q1.09375 0.890625 1.09375 2.71875l0 6.781252l-1.9375 0zm-0.8125 -4.718752l-1.078125 0.03125q-1.21875 0.046875 -1.8125 0.4531269q-0.578125 0.390625 -0.578125 1.203125q0 1.1875 1.34375 1.1875q0.96875 0 1.546875 -0.546875q0.578125 -0.5625 0.578125 -1.484375l0 -0.8437519zm9.909058 2.687502q0.734375 0 1.75 -0.3125l0 2.0625q-1.046875 0.46875 -2.546875 0.46875q-1.671875 0 -2.4375 -0.84375q-0.75 -0.84375 -0.75 -2.53125l0 -4.906252l-1.34375 0l0 -1.1875l1.53125 -0.921875l0.8125 -2.15625l1.765625 0l0 2.171875l2.859375 0l0 2.09375l-2.859375 0l0 4.906252q0 0.59375 0.328125 0.875q0.34375 0.28125 0.890625 0.28125zm10.270233 2.03125l-0.53125 -1.390625l-0.078125 0q-0.703125 0.890625 -1.453125 1.234375q-0.734375 0.34375 -1.921875 0.34375q-1.46875 0 -2.3125 -0.84375q-0.84375 -0.84375 -0.84375 -2.390625q0 -1.6250019 1.125 -2.390627q1.140625 -0.765625 3.4375 -0.84375l1.765625 -0.0625l0 -0.4375q0 -1.546875 -1.59375 -1.546875q-1.21875 0 -2.859375 0.734375l-0.921875 -1.875q1.75 -0.921875 3.890625 -0.921875q2.046875 0 3.140625 0.890625q1.09375 0.890625 1.09375 2.71875l0 6.781252l-1.9375 0zm-0.8125 -4.718752l-1.078125 0.03125q-1.21875 0.046875 -1.8125 0.4531269q-0.578125 0.390625 -0.578125 1.203125q0 1.1875 1.34375 1.1875q0.96875 0 1.546875 -0.546875q0.578125 -0.5625 0.578125 -1.484375l0 -0.8437519z" fill-rule="nonzero"/><path fill="#000000" fill-opacity="0.0" d="m183.59834 178.10367l0 -19.354324l0.06300354 0l0 -19.354324" fill-rule="evenodd"/><path stroke="#595959" stroke-width="4.0" stroke-linejoin="round" stroke-linecap="butt" d="m183.59834 178.10367l0 -19.354324l0.06300354 0l0 -19.354324" fill-rule="evenodd"/><path fill="#000000" fill-opacity="0.0" d="m263.59836 178.10367l0 -19.354324l0.06298828 0l0 -19.354324" fill-rule="evenodd"/><path stroke="#595959" stroke-width="4.0" stroke-linejoin="round" stroke-linecap="butt" d="m263.59836 178.10367l0 -19.354324l0.06298828 0l0 -19.354324" fill-rule="evenodd"/><path fill="#000000" fill-opacity="0.0" d="m183.59834 90.103676l0 -17.939522l40.25197 0l0 -17.934494" fill-rule="evenodd"/><path stroke="#595959" stroke-width="4.0" stroke-linejoin="round" stroke-linecap="butt" d="m183.59834 90.103676l0 -17.939522l40.25197 0l0 -17.934494" fill-rule="evenodd"/><path fill="#3498db" d="m239.07866 202.62335l0 0c0 -13.54184 10.977844 -24.519684 24.5197 -24.519684l0 0l0 0c6.5030212 0 12.739685 2.5833282 17.338013 7.181656c4.598358 4.5983276 7.181671 10.835007 7.181671 17.338028l0 0.25198364l0 0c0 13.54184 -10.977844 24.519684 -24.519684 24.519684l0 0l0 0c-13.541855 0 -24.5197 -10.977844 -24.5197 -24.519684z" fill-rule="evenodd"/><path fill="#3498db" d="m159.07866 202.62335l0 0c0 -13.54184 10.977844 -24.519684 24.519684 -24.519684l0 0l0 0c6.5030365 0 12.739716 2.5833282 17.338043 7.181656c4.5983276 4.5983276 7.1816406 10.835007 7.1816406 17.338028l0 0.25198364l0 0c0 13.54184 -10.977829 24.519684 -24.519684 24.519684l0 0l0 0c-13.54184 0 -24.519684 -10.977844 -24.519684 -24.519684z" fill-rule="evenodd"/><path fill="#3498db" d="m239.07866 114.62336l0 0c0 -13.541847 10.977844 -24.519684 24.5197 -24.519684l0 0l0 0c6.5030212 0 12.739685 2.583313 17.338013 7.1816483c4.598358 4.5983353 7.181671 10.835014 7.181671 17.338036l0 0.25196838l0 0c0 13.541847 -10.977844 24.519691 -24.519684 24.519691l0 0l0 0c-13.541855 0 -24.5197 -10.977844 -24.5197 -24.519691z" fill-rule="evenodd"/><path fill="#3498db" d="m159.07866 114.62336l0 0c0 -13.541847 10.977844 -24.519684 24.519684 -24.519684l0 0l0 0c6.5030365 0 12.739716 2.583313 17.338043 7.1816483c4.5983276 4.5983353 7.1816406 10.835014 7.1816406 17.338036l0 0.25196838l0 0c0 13.541847 -10.977829 24.519691 -24.519684 24.519691l0 0l0 0c-13.54184 0 -24.519684 -10.977844 -24.519684 -24.519691z" fill-rule="evenodd"/><path fill="#3498db" d="m199.34637 29.452755l0 0c0 -13.541847 10.977844 -24.519684 24.519684 -24.519684l0 0l0 0c6.5030365 0 12.739716 2.5833168 17.338043 7.1816497c4.5983276 4.5983324 7.181656 10.8350115 7.181656 17.338036l0 0.2519703l0 0c0 13.541849 -10.977844 24.519686 -24.5197 24.519686l0 0l0 0c-13.54184 0 -24.519684 -10.977837 -24.519684 -24.519686z" fill-rule="evenodd"/><path fill="#3498db" d="m79.07867 202.62335l0 0c0 -13.54184 10.977837 -24.519684 24.519684 -24.519684l0 0l0 0c6.5030212 0 12.7397 2.5833282 17.338036 7.181656c4.5983276 4.5983276 7.1816406 10.835007 7.1816406 17.338028l0 0.25198364l0 0c0 13.54184 -10.977829 24.519684 -24.519676 24.519684l0 0l0 0c-13.541847 0 -24.519684 -10.977844 -24.519684 -24.519684z" fill-rule="evenodd"/><path fill="#3498db" d="m319.07867 202.62335l0 0c0 -13.54184 10.977814 -24.519684 24.519684 -24.519684l0 0l0 0c6.5030212 0 12.739685 2.5833282 17.338013 7.181656c4.598358 4.5983276 7.181671 10.835007 7.181671 17.338028l0 0.25198364l0 0c0 13.54184 -10.977844 24.519684 -24.519684 24.519684l0 0l0 0c-13.54187 0 -24.519684 -10.977844 -24.519684 -24.519684z" fill-rule="evenodd"/><path fill="#000000" fill-opacity="0.0" d="m103.59835 178.10367l0 -19.354324l79.99999 0l0 -19.354324" fill-rule="evenodd"/><path stroke="#595959" stroke-width="4.0" stroke-linejoin="round" stroke-linecap="butt" d="m103.59835 178.10367l0 -19.354324l79.99999 0l0 -19.354324" fill-rule="evenodd"/><path fill="#000000" fill-opacity="0.0" d="m173.84511 29.578762l12.750549 0l0 0.062992096l12.761261 0" fill-rule="evenodd"/><path stroke="#595959" stroke-width="4.0" stroke-linejoin="round" stroke-linecap="butt" d="m173.84511 29.578762l12.750549 0l0 0.062992096l12.761261 0" fill-rule="evenodd"/><path fill="#000000" fill-opacity="0.0" d="m275.11807 29.580809l-13.366058 0l0 0.062992096l-13.3741 0" fill-rule="evenodd"/><path stroke="#595959" stroke-width="4.0" stroke-linejoin="round" stroke-linecap="butt" d="m275.11807 29.580809l-13.366058 0l0 0.062992096l-13.3741 0" fill-rule="evenodd"/><path fill="#bf9000" d="m214.11809 71.979004l0 0c0 -5.38369 4.3643494 -9.748032 9.748032 -9.748032l0 0l0 0c2.5853424 0 5.064789 1.0270195 6.8928986 2.855133c1.8281097 1.8281097 2.855133 4.307556 2.855133 6.8928986l0 0.37795258l0 0c0 5.38369 -4.364334 9.748032 -9.748032 9.748032l0 0l0 0c-5.3836823 0 -9.748032 -4.3643417 -9.748032 -9.748032z" fill-rule="evenodd"/><path fill="#bf9000" d="m173.84512 158.56168l0 0c0 -5.3836823 4.3643494 -9.748032 9.748032 -9.748032l0 0l0 0c2.5853424 0 5.064789 1.0270233 6.8928986 2.855133c1.8281097 1.8281097 2.855133 4.307556 2.855133 6.8928986l0 0.3779602l0 0c0 5.3836823 -4.364334 9.748032 -9.748032 9.748032l0 0l0 0c-5.3836823 0 -9.748032 -4.3643494 -9.748032 -9.748032z" fill-rule="evenodd"/><path fill="#000000" fill-opacity="0.0" d="m343.59836 178.10367l0 -19.354324l-80.0 0l0 -19.354324" fill-rule="evenodd"/><path stroke="#595959" stroke-width="4.0" stroke-linejoin="round" stroke-linecap="butt" d="m343.59836 178.10367l0 -19.354324l-80.0 0l0 -19.354324" fill-rule="evenodd"/><path fill="#bf9000" d="m254.11809 158.56168l0 0c0 -5.3836823 4.364334 -9.748032 9.748032 -9.748032l0 0l0 0c2.5853577 0 5.064789 1.0270233 6.892914 2.855133c1.8280945 1.8281097 2.855133 4.307556 2.855133 6.8928986l0 0.3779602l0 0c0 5.3836823 -4.3643494 9.748032 -9.748047 9.748032l0 0l0 0c-5.3836975 0 -9.748032 -4.3643494 -9.748032 -9.748032z" fill-rule="evenodd"/></g></svg>