<svg version="1.1" viewBox="0.0 0.0 457.501312335958 328.12598425196853" fill="none" stroke="none" stroke-linecap="square" stroke-miterlimit="10" xmlns:xlink="http://www.w3.org/1999/xlink" xmlns="http://www.w3.org/2000/svg"><clipPath id="p.0"><path d="m0 0l457.5013 0l0 328.12598l-457.5013 0l0 -328.12598z" clip-rule="nonzero"/></clipPath><g clip-path="url(#p.0)"><path fill="#000000" fill-opacity="0.0" d="m0 0l457.5013 0l0 328.12598l-457.5013 0z" fill-rule="evenodd"/><path fill="#000000" fill-opacity="0.0" d="m267.34637 88.980316l0 -17.939522l-39.74803 0l0 -17.934494" fill-rule="evenodd"/><path stroke="#595959" stroke-width="4.0" stroke-linejoin="round" stroke-linecap="butt" d="m267.34637 88.980316l0 -17.939522l-39.74803 0l0 -17.934494" fill-rule="evenodd"/><path fill="#bf9000" d="m5.7348695 28.455402l0 0c0 -13.611428 11.034243 -24.64567 24.64567 -24.64567l121.921265 0c6.536438 0 12.8051605 2.59659 17.427109 7.2185497c4.6219635 4.6219597 7.2185516 10.890682 7.2185516 17.42712l0 0l0 0c0 13.611427 -11.034241 24.645668 -24.64566 24.645668l-121.921265 0c-13.611427 0 -24.64567 -11.034241 -24.64567 -24.645668z" fill-rule="evenodd"/><path fill="#ffffff" d="m43.065674 35.3754l0 -13.3125l2.828125 0l0 13.3125l-2.828125 0zm15.363739 0l-2.78125 0l0 -5.953125q0 -1.09375 -0.390625 -1.640625q-0.390625 -0.5625 -1.25 -0.5625q-1.15625 0 -1.6875 0.78125q-0.515625 0.78125 -0.515625 2.578125l0 4.796875l-2.78125 0l0 -10.1875l2.125 0l0.375 1.3125l0.15625 0q0.46875 -0.75 1.28125 -1.125q0.8125 -0.375 1.84375 -0.375q1.78125 0 2.703125 0.96875q0.921875 0.953125 0.921875 2.765625l0 6.640625zm8.448883 0.1875q-1.796875 0 -2.8125 -1.3125l-0.140625 0q0.140625 1.28125 0.140625 1.484375l0 4.125l-2.78125 0l0 -14.671875l2.265625 0l0.390625 1.328125l0.125 0q0.96875 -1.515625 2.890625 -1.515625q1.796875 0 2.8125 1.390625q1.03125 1.390625 1.03125 3.875q0 1.625 -0.484375 2.828125q-0.46875 1.203125 -1.359375 1.84375q-0.875 0.625 -2.078125 0.625zm-0.8125 -8.34375q-1.03125 0 -1.515625 0.640625q-0.46875 0.625 -0.484375 2.09375l0 0.296875q0 1.640625 0.484375 2.359375q0.484375 0.703125 1.546875 0.703125q1.875 0 1.875 -3.078125q0 -1.515625 -0.46875 -2.265625q-0.453125 -0.75 -1.4375 -0.75zm14.243408 8.15625l-0.375 -1.296875l-0.140625 0q-0.453125 0.703125 -1.28125 1.09375q-0.8125 0.390625 -1.859375 0.390625q-1.796875 0 -2.703125 -0.953125q-0.90625 -0.96875 -0.90625 -2.78125l0 -6.640625l2.78125 0l0 5.953125q0 1.09375 0.390625 1.65625q0.390625 0.546875 1.25 0.546875q1.15625 0 1.671875 -0.78125q0.53125 -0.78125 0.53125 -2.578125l0 -4.796875l2.765625 0l0 10.1875l-2.125 0zm9.339508 -2.03125q0.734375 0 1.75 -0.3125l0 2.0625q-1.046875 0.46875 -2.546875 0.46875q-1.671875 0 -2.4375 -0.84375q-0.75 -0.84375 -0.75 -2.53125l0 -4.90625l-1.34375 0l0 -1.1875l1.53125 -0.921875l0.8125 -2.15625l1.765625 0l0 2.171875l2.859375 0l0 2.09375l-2.859375 0l0 4.90625q0 0.59375 0.328125 0.875q0.34375 0.28125 0.890625 0.28125zm19.913345 -4.75q0 3.28125 -1.875 5.03125q-1.859375 1.75 -5.390625 1.75l-3.78125 0l0 -13.3125l4.1875 0q3.265625 0 5.0625 1.71875q1.796875 1.71875 1.796875 4.8125zm-2.921875 0.0625q0 -4.28125 -3.796875 -4.28125l-1.5 0l0 8.671875l1.21875 0q4.078125 0 4.078125 -4.390625zm11.934998 6.71875l-0.53125 -1.390625l-0.078125 0q-0.703125 0.890625 -1.453125 1.234375q-0.734375 0.34375 -1.921875 0.34375q-1.46875 0 -2.3125 -0.84375q-0.84375 -0.84375 -0.84375 -2.390625q0 -1.625 1.125 -2.390625q1.140625 -0.765625 3.4375 -0.84375l1.765625 -0.0625l0 -0.4375q0 -1.546875 -1.59375 -1.546875q-1.21875 0 -2.859375 0.734375l-0.921875 -1.875q1.75 -0.921875 3.890625 -0.921875q2.046875 0 3.140625 0.890625q1.09375 0.890625 1.09375 2.71875l0 6.78125l-1.9375 0zm-0.8125 -4.71875l-1.078125 0.03125q-1.21875 0.046875 -1.8125 0.453125q-0.578125 0.390625 -0.578125 1.203125q0 1.1875 1.34375 1.1875q0.96875 0 1.546875 -0.546875q0.578125 -0.5625 0.578125 -1.484375l0 -0.84375zm9.909073 2.6875q0.734375 0 1.75 -0.3125l0 2.0625q-1.046875 0.46875 -2.546875 0.46875q-1.671875 0 -2.4375 -0.84375q-0.75 -0.84375 -0.75 -2.53125l0 -4.90625l-1.34375 0l0 -1.1875l1.53125 -0.921875l0.8125 -2.15625l1.765625 0l0 2.171875l2.859375 0l0 2.09375l-2.859375 0l0 4.90625q0 0.59375 0.328125 0.875q0.34375 0.28125 0.890625 0.28125zm10.270218 2.03125l-0.53125 -1.390625l-0.078125 0q-0.703125 0.890625 -1.453125 1.234375q-0.734375 0.34375 -1.921875 0.34375q-1.46875 0 -2.3125 -0.84375q-0.84375 -0.84375 -0.84375 -2.390625q0 -1.625 1.125 -2.390625q1.140625 -0.765625 3.4375 -0.84375l1.765625 -0.0625l0 -0.4375q0 -1.546875 -1.59375 -1.546875q-1.21875 0 -2.859375 0.734375l-0.921875 -1.875q1.75 -0.921875 3.890625 -0.921875q2.046875 0 3.140625 0.890625q1.09375 0.890625 1.09375 2.71875l0 6.78125l-1.9375 0zm-0.8125 -4.71875l-1.078125 0.03125q-1.21875 0.046875 -1.8125 0.453125q-0.578125 0.390625 -0.578125 1.203125q0 1.1875 1.34375 1.1875q0.96875 0 1.546875 -0.546875q0.578125 -0.5625 0.578125 -1.484375l0 -0.84375z" fill-rule="nonzero"/><path fill="#bf9000" d="m282.6089 28.487633l0 0c0 -13.611427 11.034241 -24.64567 24.64566 -24.64567l121.921265 0c6.536438 0 12.805176 2.59659 17.427124 7.2185493c4.6219482 4.6219597 7.2185364 10.890682 7.2185364 17.42712l0 0l0 0c0 13.611427 -11.034241 24.645668 -24.64566 24.645668l-121.921265 0c-13.61142 0 -24.64566 -11.034241 -24.64566 -24.645668z" fill-rule="evenodd"/><path fill="#ffffff" d="m323.64816 28.735756q0 3.296875 -1.640625 5.078125q-1.640625 1.78125 -4.703125 1.78125q-3.0625 0 -4.703125 -1.78125q-1.640625 -1.78125 -1.640625 -5.109375q0 -3.3125 1.640625 -5.0625q1.65625 -1.765625 4.71875 -1.765625q3.078125 0 4.703125 1.765625q1.625 1.765625 1.625 5.09375zm-9.71875 0q0 2.21875 0.84375 3.359375q0.84375 1.125 2.53125 1.125q3.375 0 3.375 -4.484375q0 -4.5 -3.359375 -4.5q-1.6875 0 -2.546875 1.140625q-0.84375 1.125 -0.84375 3.359375zm19.47348 6.671875l-0.375 -1.296875l-0.140625 0q-0.453125 0.703125 -1.28125 1.09375q-0.8125 0.390625 -1.859375 0.390625q-1.796875 0 -2.703125 -0.953125q-0.90625 -0.96875 -0.90625 -2.78125l0 -6.640625l2.78125 0l0 5.953125q0 1.09375 0.390625 1.65625q0.390625 0.546875 1.25 0.546875q1.15625 0 1.671875 -0.78125q0.53125 -0.78125 0.53125 -2.578125l0 -4.796875l2.765625 0l0 10.1875l-2.125 0zm9.339508 -2.03125q0.734375 0 1.75 -0.3125l0 2.0625q-1.046875 0.46875 -2.546875 0.46875q-1.671875 0 -2.4375 -0.84375q-0.75 -0.84375 -0.75 -2.53125l0 -4.90625l-1.34375 0l0 -1.1875l1.53125 -0.921875l0.8125 -2.15625l1.765625 0l0 2.171875l2.859375 0l0 2.09375l-2.859375 0l0 4.90625q0 0.59375 0.328125 0.875q0.34375 0.28125 0.890625 0.28125zm9.395203 2.21875q-1.796875 0 -2.8125 -1.3125l-0.140625 0q0.140625 1.28125 0.140625 1.484375l0 4.125l-2.78125 0l0 -14.671875l2.265625 0l0.390625 1.328125l0.125 0q0.96875 -1.515625 2.890625 -1.515625q1.796875 0 2.8125 1.390625q1.03125 1.390625 1.03125 3.875q0 1.625 -0.484375 2.828125q-0.46875 1.203125 -1.359375 1.84375q-0.875 0.625 -2.078125 0.625zm-0.8125 -8.34375q-1.03125 0 -1.515625 0.640625q-0.46875 0.625 -0.484375 2.09375l0 0.296875q0 1.640625 0.484375 2.359375q0.484375 0.703125 1.546875 0.703125q1.875 0 1.875 -3.078125q0 -1.515625 -0.46875 -2.265625q-0.453125 -0.75 -1.4375 -0.75zm14.243408 8.15625l-0.375 -1.296875l-0.140625 0q-0.453125 0.703125 -1.28125 1.09375q-0.8125 0.390625 -1.859375 0.390625q-1.796875 0 -2.703125 -0.953125q-0.90625 -0.96875 -0.90625 -2.78125l0 -6.640625l2.78125 0l0 5.953125q0 1.09375 0.390625 1.65625q0.390625 0.546875 1.25 0.546875q1.15625 0 1.671875 -0.78125q0.53125 -0.78125 0.53125 -2.578125l0 -4.796875l2.765625 0l0 10.1875l-2.125 0zm9.339508 -2.03125q0.734375 0 1.75 -0.3125l0 2.0625q-1.046875 0.46875 -2.546875 0.46875q-1.671875 0 -2.4375 -0.84375q-0.75 -0.84375 -0.75 -2.53125l0 -4.90625l-1.34375 0l0 -1.1875l1.53125 -0.921875l0.8125 -2.15625l1.765625 0l0 2.171875l2.859375 0l0 2.09375l-2.859375 0l0 4.90625q0 0.59375 0.328125 0.875q0.34375 0.28125 0.890625 0.28125zm19.91336 -4.75q0 3.28125 -1.875 5.03125q-1.859375 1.75 -5.390625 1.75l-3.78125 0l0 -13.3125l4.1875 0q3.265625 0 5.0625 1.71875q1.796875 1.71875 1.796875 4.8125zm-2.921875 0.0625q0 -4.28125 -3.796875 -4.28125l-1.5 0l0 8.671875l1.21875 0q4.078125 0 4.078125 -4.390625zm11.934998 6.71875l-0.53125 -1.390625l-0.078125 0q-0.703125 0.890625 -1.453125 1.234375q-0.734375 0.34375 -1.921875 0.34375q-1.46875 0 -2.3125 -0.84375q-0.84375 -0.84375 -0.84375 -2.390625q0 -1.625 1.125 -2.390625q1.140625 -0.765625 3.4375 -0.84375l1.765625 -0.0625l0 -0.4375q0 -1.546875 -1.59375 -1.546875q-1.21875 0 -2.859375 0.734375l-0.921875 -1.875q1.75 -0.921875 3.890625 -0.921875q2.046875 0 3.140625 0.890625q1.09375 0.890625 1.09375 2.71875l0 6.78125l-1.9375 0zm-0.8125 -4.71875l-1.078125 0.03125q-1.21875 0.046875 -1.8125 0.453125q-0.578125 0.390625 -0.578125 1.203125q0 1.1875 1.34375 1.1875q0.96875 0 1.546875 -0.546875q0.578125 -0.5625 0.578125 -1.484375l0 -0.84375zm9.909058 2.6875q0.734375 0 1.75 -0.3125l0 2.0625q-1.046875 0.46875 -2.546875 0.46875q-1.671875 0 -2.4375 -0.84375q-0.75 -0.84375 -0.75 -2.53125l0 -4.90625l-1.34375 0l0 -1.1875l1.53125 -0.921875l0.8125 -2.15625l1.765625 0l0 2.171875l2.859375 0l0 2.09375l-2.859375 0l0 4.90625q0 0.59375 0.328125 0.875q0.34375 0.28125 0.890625 0.28125zm10.270233 2.03125l-0.53125 -1.390625l-0.078125 0q-0.703125 0.890625 -1.453125 1.234375q-0.734375 0.34375 -1.921875 0.34375q-1.46875 0 -2.3125 -0.84375q-0.84375 -0.84375 -0.84375 -2.390625q0 -1.625 1.125 -2.390625q1.140625 -0.765625 3.4375 -0.84375l1.765625 -0.0625l0 -0.4375q0 -1.546875 -1.59375 -1.546875q-1.21875 0 -2.859375 0.734375l-0.921875 -1.875q1.75 -0.921875 3.890625 -0.921875q2.046875 0 3.140625 0.890625q1.09375 0.890625 1.09375 2.71875l0 6.78125l-1.9375 0zm-0.8125 -4.71875l-1.078125 0.03125q-1.21875 0.046875 -1.8125 0.453125q-0.578125 0.390625 -0.578125 1.203125q0 1.1875 1.34375 1.1875q0.96875 0 1.546875 -0.546875q0.578125 -0.5625 0.578125 -1.484375l0 -0.84375z" fill-rule="nonzero"/><path fill="#000000" fill-opacity="0.0" d="m187.34637 176.98032l0 -19.354324l0.06300354 0l0 -19.35434" fill-rule="evenodd"/><path stroke="#595959" stroke-width="4.0" stroke-linejoin="round" stroke-linecap="butt" d="m187.34637 176.98032l0 -19.354324l0.06300354 0l0 -19.35434" fill-rule="evenodd"/><path fill="#000000" fill-opacity="0.0" d="m267.34637 176.98032l0 -19.354324l0.06298828 0l0 -19.35434" fill-rule="evenodd"/><path stroke="#595959" stroke-width="4.0" stroke-linejoin="round" stroke-linecap="butt" d="m267.34637 176.98032l0 -19.354324l0.06298828 0l0 -19.35434" fill-rule="evenodd"/><path fill="#000000" fill-opacity="0.0" d="m187.34637 88.980316l0 -17.939522l40.25197 0l0 -17.934494" fill-rule="evenodd"/><path stroke="#595959" stroke-width="4.0" stroke-linejoin="round" stroke-linecap="butt" d="m187.34637 88.980316l0 -17.939522l40.25197 0l0 -17.934494" fill-rule="evenodd"/><path fill="#3498db" d="m242.82669 201.5l0 0c0 -13.541855 10.977844 -24.519684 24.519684 -24.519684l0 0l0 0c6.5030212 0 12.739716 2.583313 17.338043 7.181656c4.5983276 4.5983276 7.1816406 10.835007 7.1816406 17.338028l0 0.25196838l0 0c0 13.541855 -10.977844 24.519684 -24.519684 24.519684l0 0l0 0c-13.54184 0 -24.519684 -10.977829 -24.519684 -24.519684z" fill-rule="evenodd"/><path fill="#3498db" d="m162.82669 201.5l0 0c0 -13.541855 10.977844 -24.519684 24.519684 -24.519684l0 0l0 0c6.5030365 0 12.739716 2.583313 17.338043 7.181656c4.5983276 4.5983276 7.1816406 10.835007 7.1816406 17.338028l0 0.25196838l0 0c0 13.541855 -10.977829 24.519684 -24.519684 24.519684l0 0l0 0c-13.54184 0 -24.519684 -10.977829 -24.519684 -24.519684z" fill-rule="evenodd"/><path fill="#3498db" d="m242.82669 113.5l0 0c0 -13.541847 10.977844 -24.519684 24.519684 -24.519684l0 0l0 0c6.5030212 0 12.739716 2.583313 17.338043 7.1816483c4.5983276 4.5983353 7.1816406 10.835014 7.1816406 17.338036l0 0.25196838l0 0c0 13.541847 -10.977844 24.519684 -24.519684 24.519684l0 0l0 0c-13.54184 0 -24.519684 -10.977837 -24.519684 -24.519684z" fill-rule="evenodd"/><path fill="#3498db" d="m162.82669 113.5l0 0c0 -13.541847 10.977844 -24.519684 24.519684 -24.519684l0 0l0 0c6.5030365 0 12.739716 2.583313 17.338043 7.1816483c4.5983276 4.5983353 7.1816406 10.835014 7.1816406 17.338036l0 0.25196838l0 0c0 13.541847 -10.977829 24.519684 -24.519684 24.519684l0 0l0 0c-13.54184 0 -24.519684 -10.977837 -24.519684 -24.519684z" fill-rule="evenodd"/><path fill="#000000" fill-opacity="0.0" d="m107.34638 275.54462l0 -24.636322l0.06298828 0l0 -24.62352" fill-rule="evenodd"/><path stroke="#595959" stroke-width="4.0" stroke-linejoin="round" stroke-linecap="butt" d="m107.34638 275.54462l0 -24.636322l0.06298828 0l0 -24.62352" fill-rule="evenodd"/><path fill="#3498db" d="m203.0944 28.329397l0 0c0 -13.541849 10.977844 -24.519686 24.519684 -24.519686l0 0l0 0c6.5030365 0 12.739716 2.5833166 17.338043 7.181649c4.5983276 4.5983334 7.181656 10.8350115 7.181656 17.338036l0 0.25196838l0 0c0 13.541849 -10.977844 24.519686 -24.5197 24.519686l0 0l0 0c-13.54184 0 -24.519684 -10.977837 -24.519684 -24.519686z" fill-rule="evenodd"/><path fill="#a72a1e" d="m82.8267 201.5l0 0c0 -13.541855 10.977837 -24.519684 24.519684 -24.519684l0 0l0 0c6.5030212 0 12.7397 2.583313 17.338036 7.181656c4.5983276 4.5983276 7.1816406 10.835007 7.1816406 17.338028l0 0.25196838l0 0c0 13.541855 -10.977829 24.519684 -24.519676 24.519684l0 0l0 0c-13.541847 0 -24.519684 -10.977829 -24.519684 -24.519684z" fill-rule="evenodd"/><path fill="#3498db" d="m322.8267 201.5l0 0c0 -13.541855 10.977844 -24.519684 24.519684 -24.519684l0 0l0 0c6.5030212 0 12.739716 2.583313 17.338043 7.181656c4.5983276 4.5983276 7.1816406 10.835007 7.1816406 17.338028l0 0.25196838l0 0c0 13.541855 -10.977844 24.519684 -24.519684 24.519684l0 0l0 0c-13.54184 0 -24.519684 -10.977829 -24.519684 -24.519684z" fill-rule="evenodd"/><path fill="#000000" fill-opacity="0.0" d="m107.34638 176.98032l0 -19.354324l79.99999 0l0 -19.35434" fill-rule="evenodd"/><path stroke="#595959" stroke-width="4.0" stroke-linejoin="round" stroke-linecap="butt" d="m107.34638 176.98032l0 -19.354324l79.99999 0l0 -19.35434" fill-rule="evenodd"/><path fill="#000000" fill-opacity="0.0" d="m176.94746 28.455402l13.073486 0l0 0.062992096l13.068253 0" fill-rule="evenodd"/><path stroke="#595959" stroke-width="4.0" stroke-linejoin="round" stroke-linecap="butt" d="m176.94746 28.455402l13.073486 0l0 0.062992096l13.068253 0" fill-rule="evenodd"/><path fill="#000000" fill-opacity="0.0" d="m282.6089 28.487633l-15.237701 0l0 0.062992096l-15.250488 0" fill-rule="evenodd"/><path stroke="#595959" stroke-width="4.0" stroke-linejoin="round" stroke-linecap="butt" d="m282.6089 28.487633l-15.237701 0l0 0.062992096l-15.250488 0" fill-rule="evenodd"/><path fill="#bf9000" d="m217.86612 70.855644l0 0c0 -5.38369 4.3643494 -9.748032 9.748032 -9.748032l0 0l0 0c2.5853424 0 5.064789 1.0270195 6.8928986 2.855133c1.8281097 1.8281097 2.855133 4.307556 2.855133 6.8928986l0 0.37795258l0 0c0 5.38369 -4.364334 9.748032 -9.748032 9.748032l0 0l0 0c-5.3836823 0 -9.748032 -4.3643417 -9.748032 -9.748032z" fill-rule="evenodd"/><path fill="#bf9000" d="m177.59315 157.43832l0 0c0 -5.3836975 4.3643494 -9.748032 9.748032 -9.748032l0 0l0 0c2.5853424 0 5.064789 1.0270233 6.8928986 2.855133c1.8281097 1.8281097 2.855133 4.307556 2.855133 6.8928986l0 0.37794495l0 0c0 5.3836975 -4.364334 9.748032 -9.748032 9.748032l0 0l0 0c-5.3836823 0 -9.748032 -4.364334 -9.748032 -9.748032z" fill-rule="evenodd"/><path fill="#000000" fill-opacity="0.0" d="m347.34637 176.98032l0 -19.354324l-80.0 0l0 -19.35434" fill-rule="evenodd"/><path stroke="#595959" stroke-width="4.0" stroke-linejoin="round" stroke-linecap="butt" d="m347.34637 176.98032l0 -19.354324l-80.0 0l0 -19.35434" fill-rule="evenodd"/><path fill="#bf9000" d="m257.86612 157.43832l0 0c0 -5.3836975 4.3643494 -9.748032 9.748047 -9.748032l0 0l0 0c2.5853271 0 5.064789 1.0270233 6.8928833 2.855133c1.828125 1.8281097 2.855133 4.307556 2.855133 6.8928986l0 0.37794495l0 0c0 5.3836975 -4.3643494 9.748032 -9.748016 9.748032l0 0l0 0c-5.3836975 0 -9.748047 -4.364334 -9.748047 -9.748032z" fill-rule="evenodd"/><path fill="#a72a1e" d="m2.826695 300.0643l0 0c0 -13.54184 10.977837 -24.519684 24.519686 -24.519684l0 0l0 0c6.503023 0 12.739702 2.583313 17.338034 7.1816406c4.5983353 4.598358 7.181652 10.835022 7.181652 17.338043l0 0.25198364l0 0c0 13.54184 -10.977837 24.519684 -24.519686 24.519684l0 0l0 0c-13.541848 0 -24.519686 -10.977844 -24.519686 -24.519684z" fill-rule="evenodd"/><path fill="#a72a1e" d="m82.8267 300.0643l0 0c0 -13.54184 10.977837 -24.519684 24.519684 -24.519684l0 0l0 0c6.5030212 0 12.7397 2.583313 17.338036 7.1816406c4.5983276 4.598358 7.1816406 10.835022 7.1816406 17.338043l0 0.25198364l0 0c0 13.54184 -10.977829 24.519684 -24.519676 24.519684l0 0l0 0c-13.541847 0 -24.519684 -10.977844 -24.519684 -24.519684z" fill-rule="evenodd"/><path fill="#bf9000" d="m97.393684 250.71916l0 0c0 -5.3836975 4.3643417 -9.748032 9.748032 -9.748032l0 0l0 0c2.5853424 0 5.064789 1.0270233 6.8928986 2.855133c1.8281097 1.8281097 2.855133 4.307556 2.855133 6.8928986l0 0.37794495l0 0c0 5.3836975 -4.3643417 9.748047 -9.748032 9.748047l0 0l0 0c-5.38369 0 -9.748032 -4.3643494 -9.748032 -9.748047z" fill-rule="evenodd"/><path fill="#000000" fill-opacity="0.0" d="m27.34638 275.54462l0 -24.629913l70.04724 0" fill-rule="evenodd"/><path stroke="#595959" stroke-width="4.0" stroke-linejoin="round" stroke-linecap="butt" d="m27.34638 275.54462l0 -24.629913l70.04724 0" fill-rule="evenodd"/></g></svg>